<svg width="16" height="16" viewBox="0 0 16 16" fill="none" xmlns="http://www.w3.org/2000/svg">
<path d="M2.50001 7.99987C2.49986 7.03434 2.75388 6.08579 3.23655 5.24957C3.71921 4.41334 4.41351 3.71891 5.24964 3.23608C6.08577 2.75325 7.03427 2.49904 7.99979 2.49901C8.96532 2.49897 9.91384 2.75311 10.75 3.23587C10.8648 3.30113 11.0007 3.31834 11.1281 3.28374C11.2556 3.24915 11.3641 3.16556 11.4301 3.05121C11.4962 2.93687 11.5143 2.80106 11.4805 2.67341C11.4468 2.54576 11.3639 2.43664 11.25 2.36987C10.0109 1.65445 8.57029 1.36789 7.15169 1.55463C5.73309 1.74137 4.41575 2.39097 3.40396 3.40269C2.39218 4.41441 1.74249 5.73172 1.55566 7.1503C1.36883 8.56889 1.6553 10.0095 2.37064 11.2487C3.08597 12.4879 4.19021 13.4564 5.51208 14.0041C6.83396 14.5517 8.29961 14.6479 9.68173 14.2777C11.0638 13.9075 12.2852 13.0916 13.1564 11.9566C14.0275 10.8215 14.4998 9.4307 14.5 7.99987C14.5 7.86726 14.4473 7.74008 14.3536 7.64631C14.2598 7.55255 14.1326 7.49987 14 7.49987C13.8674 7.49987 13.7402 7.55255 13.6465 7.64631C13.5527 7.74008 13.5 7.86726 13.5 7.99987C13.5 9.45856 12.9205 10.8575 11.8891 11.889C10.8576 12.9204 9.4587 13.4999 8.00001 13.4999C6.54132 13.4999 5.14237 12.9204 4.11092 11.889C3.07947 10.8575 2.50001 9.45856 2.50001 7.99987Z" fill="#0DFFEB"/>
<path d="M15.3539 3.35366C15.4004 3.30717 15.4373 3.25198 15.4624 3.19124C15.4876 3.1305 15.5005 3.0654 15.5005 2.99966C15.5005 2.93391 15.4876 2.86881 15.4624 2.80807C15.4373 2.74733 15.4004 2.69214 15.3539 2.64565C15.3074 2.59917 15.2522 2.56229 15.1915 2.53713C15.1307 2.51197 15.0656 2.49902 14.9999 2.49902C14.9342 2.49902 14.8691 2.51197 14.8083 2.53713C14.7476 2.56229 14.6924 2.59917 14.6459 2.64565L7.9999 9.29265L5.3539 6.64565C5.30741 6.59917 5.25222 6.56229 5.19148 6.53713C5.13074 6.51197 5.06564 6.49902 4.9999 6.49902C4.93416 6.49902 4.86906 6.51197 4.80832 6.53713C4.74758 6.56229 4.69239 6.59917 4.6459 6.64565C4.59941 6.69214 4.56254 6.74733 4.53738 6.80807C4.51222 6.86881 4.49927 6.93391 4.49927 6.99965C4.49927 7.0654 4.51222 7.1305 4.53738 7.19124C4.56254 7.25198 4.59941 7.30717 4.6459 7.35365L7.6459 10.3537C7.69234 10.4002 7.74752 10.4372 7.80827 10.4624C7.86901 10.4876 7.93413 10.5005 7.9999 10.5005C8.06567 10.5005 8.13079 10.4876 8.19153 10.4624C8.25228 10.4372 8.30745 10.4002 8.3539 10.3537L15.3539 3.35366Z" fill="#0DFFEB"/>
</svg>
